<?xml version="1.0" encoding="UTF-8" standalone="no"?>
<!-- Created with Inkscape (http://www.inkscape.org/) -->

<svg
   width="87.709389mm"
   height="24.045563mm"
   viewBox="0 0 87.709389 24.045563"
   version="1.1"
   id="svg7228"
   inkscape:version="1.2.2 (b0a8486541, 2022-12-01)"
   sodipodi:docname="dylibso-logo.svg"
   xml:space="preserve"
   xmlns:inkscape="http://www.inkscape.org/namespaces/inkscape"
   xmlns:sodipodi="http://sodipodi.sourceforge.net/DTD/sodipodi-0.dtd"
   xmlns="http://www.w3.org/2000/svg"
   xmlns:svg="http://www.w3.org/2000/svg"><sodipodi:namedview
     id="namedview7230"
     pagecolor="#ffffff"
     bordercolor="#000000"
     borderopacity="0.25"
     inkscape:showpageshadow="2"
     inkscape:pageopacity="0.0"
     inkscape:pagecheckerboard="0"
     inkscape:deskcolor="#d1d1d1"
     inkscape:document-units="mm"
     showgrid="false"
     showguides="true"
     inkscape:zoom="2"
     inkscape:cx="135.5"
     inkscape:cy="178"
     inkscape:window-width="2560"
     inkscape:window-height="1371"
     inkscape:window-x="0"
     inkscape:window-y="32"
     inkscape:window-maximized="1"
     inkscape:current-layer="g4274"
     inkscape:lockguides="true"><sodipodi:guide
       position="-4.7823908,-289.12888"
       orientation="1,0"
       id="guide19723"
       inkscape:locked="true" /><sodipodi:guide
       position="2.9817891,-291.74812"
       orientation="1,0"
       id="guide19725"
       inkscape:locked="true" /><sodipodi:guide
       position="-321.89768,-320.74686"
       orientation="0,-1"
       id="guide19788"
       inkscape:locked="true" /><sodipodi:guide
       position="-147.53104,-227.38961"
       orientation="0,-1"
       id="guide26900"
       inkscape:locked="true" /><sodipodi:guide
       position="-142.29255,-242.45025"
       orientation="1,0"
       id="guide26902"
       inkscape:locked="true" /><sodipodi:guide
       position="-125.9223,-257.13671"
       orientation="0,-1"
       id="guide26904"
       inkscape:locked="true" /><sodipodi:guide
       position="-97.110642,-241.95914"
       orientation="0,-1"
       id="guide28753"
       inkscape:locked="true" /><sodipodi:guide
       position="-126.01584,-242.30994"
       orientation="0,-1"
       id="guide29172"
       inkscape:locked="true" /><sodipodi:guide
       position="-321.60535,-315.35344"
       orientation="0,-1"
       id="guide29902"
       inkscape:locked="true" /><sodipodi:guide
       position="40.259209,-345.11516"
       orientation="0,-1"
       id="guide32607"
       inkscape:locked="true" /><sodipodi:guide
       position="31.933759,-354.98409"
       orientation="0,-1"
       id="guide32609"
       inkscape:locked="true" /><sodipodi:guide
       position="34.282239,-272.63622"
       orientation="0,-1"
       id="guide32973"
       inkscape:locked="true" /><sodipodi:guide
       position="27.155029,-282.52502"
       orientation="0,-1"
       id="guide32977"
       inkscape:locked="true" /><sodipodi:guide
       position="45.684779,-267.47336"
       orientation="0,-1"
       id="guide32979"
       inkscape:locked="true" /><sodipodi:guide
       position="40.867249,-288.98856"
       orientation="0,-1"
       id="guide33327"
       inkscape:locked="true" /></sodipodi:namedview><defs
     id="defs7225"><style
       id="style336">.cls-1{fill:#23e4d2;fill-rule:evenodd;}</style></defs><g
     inkscape:label="Layer 1"
     inkscape:groupmode="layer"
     id="layer1"
     transform="translate(-112.82609,-137.89634)"><g
       id="g4274"
       inkscape:export-filename="g4274.png"
       inkscape:export-xdpi="150"
       inkscape:export-ydpi="150"><path
         id="path642-11-1-9"
         class="cls-1"
         d="m 154.6755,142.29709 c -0.23715,0.48128 -1.4717,-0.43244 -1.91462,-0.1011 -0.4429,0.33132 0.25809,1.64609 -0.29991,1.74373 -0.55799,0.0977 -0.59287,-1.33568 -1.15435,-1.46123 -0.56148,-0.12562 -1.21014,1.17875 -1.667,0.84047 -0.45685,-0.33828 0.73585,-1.23455 0.47778,-1.7228 -0.25807,-0.48824 -1.76813,-0.17437 -1.77859,-0.69748 -0.0105,-0.52313 1.51005,-0.20577 1.74373,-0.6975 0.23365,-0.49173 -0.99044,-1.39497 -0.54754,-1.74373 0.44291,-0.34874 1.14388,0.98347 1.70188,0.86837 0.55799,-0.11507 0.51963,-1.53796 1.0811,-1.42286 0.56148,0.11507 -0.0803,1.42636 0.37666,1.76465 0.45685,0.33827 1.65304,-0.55451 1.91111,-0.0663 0.25807,0.48824 -1.24851,0.79513 -1.23455,1.3322 0.014,0.53707 1.53099,0.87536 1.29036,1.35662 z m -5.92866,2.69232 h 5.57991 v 9.85205 l -5.57991,0.0314 z m 36.53103,9.88343 c 0,0 -4.09775,-3.21193 -4.15704,-6.56687 h 3.71065 c 1.50658,0 0.31387,-3.34795 -1.15086,-3.31656 -3.81916,-0.0221 -9.13014,0 -12.96633,0 0,0 3.83619,3.22589 3.83619,6.6715 h -3.46304 c -1.4159,0 -1.04623,3.21193 0.39757,3.21193 z m 2.5284,-9.88343 c -1.00089,0 -1.80649,2.20406 -1.80649,4.94171 0,2.73765 0.28248,4.94172 1.27989,4.94172 h 11.9759 c 1.00091,0 1.27991,-2.20407 1.27991,-4.94172 0,-2.73765 -0.80213,-4.94171 -1.80302,-4.94171 z m 4.38722,4.10124 h 1.89019 c 0.6975,0 1.26595,-0.0349 1.26595,0.89279 0,0.92766 0.21971,1.15434 -0.48126,1.15434 h -3.47002 c -0.6975,0 -0.47778,-0.22319 -0.47778,-1.15434 0,-0.93116 0.56845,-0.89279 1.26944,-0.89279 z m -50.5192,-11.18773 h 5.8345 v 16.96992 h -5.8345 z m -13.85216,7.08649 c 0,0 0.16043,6.07165 0,9.88343 7.08651,0 7.07255,0.0907 7.35155,7.06906 h 5.3358 v -16.95249 h -5.31836 v 4.23724 c 0,0.71494 -0.23018,0.75679 -1.1683,0.75679 -0.93813,0 -0.91022,-0.84396 -0.91022,-1.5589 v -3.43513 z m -5.84497,-7.08649 c -0.279,6.97489 -2.06456,7.07951 -9.15107,7.07951 0.15695,3.81876 0.7533,9.89041 0.7533,9.89041 h 13.13025 l -0.0453,-16.96992 z m -2.61558,11.18076 h 2.15873 c 0.69748,0 0.74283,-0.0349 0.74283,0.89278 0,0.92766 0.21971,1.17876 -0.48128,1.17876 h -3.20844 c -0.6975,0 -0.74284,-0.22319 -0.74284,-1.15434 0,-0.93116 0.82654,-0.91023 1.531,-0.91023 z m 36.14394,-11.18076 v 16.96992 h 14.21833 c 0,0 -0.74981,-6.07165 -0.60333,-9.88343 -7.08651,0 -8.2513,-0.11164 -8.51636,-7.08649 z m 5.37764,11.18773 h 2.16223 c 0.69748,0 1.52749,-0.0349 1.52749,0.89279 0,0.92766 -0.0419,1.17178 -0.74631,1.17178 h -3.20497 c -0.69748,0 -0.48126,-0.22319 -0.48126,-1.15434 0,-0.93116 0.0419,-0.91023 0.74282,-0.91023 z"
         style="fill-opacity:1;stroke-width:0.348745;fill:#b8c137"
         sodipodi:nodetypes="csccssssssscsscccccccccscccsscssssssscssssssccccccccccccssscccccccccsssssccccccccsssssss" /></g></g></svg>
