<?xml version="1.0" encoding="UTF-8" standalone="no"?>
<!-- Created with Inkscape (http://www.inkscape.org/) -->

<svg
   width="96.219315mm"
   height="66.32859mm"
   viewBox="0 0 96.219315 66.328591"
   version="1.1"
   id="svg1"
   xml:space="preserve"
   inkscape:version="1.3.2 (091e20e, 2023-11-25)"
   sodipodi:docname="wasmee.svg"
   inkscape:export-filename="wasmee-exp.svg"
   inkscape:export-xdpi="96"
   inkscape:export-ydpi="96"
   xmlns:inkscape="http://www.inkscape.org/namespaces/inkscape"
   xmlns:sodipodi="http://sodipodi.sourceforge.net/DTD/sodipodi-0.dtd"
   xmlns:xlink="http://www.w3.org/1999/xlink"
   xmlns="http://www.w3.org/2000/svg"
   xmlns:svg="http://www.w3.org/2000/svg"><sodipodi:namedview
     id="namedview1"
     pagecolor="#ffffff"
     bordercolor="#000000"
     borderopacity="0.25"
     inkscape:showpageshadow="2"
     inkscape:pageopacity="0.0"
     inkscape:pagecheckerboard="0"
     inkscape:deskcolor="#d1d1d1"
     inkscape:document-units="mm"
     showgrid="true"
     inkscape:zoom="1.3405359"
     inkscape:cx="371.12023"
     inkscape:cy="129.42585"
     inkscape:window-width="2256"
     inkscape:window-height="1090"
     inkscape:window-x="0"
     inkscape:window-y="25"
     inkscape:window-maximized="0"
     inkscape:current-layer="layer1"><inkscape:grid
       id="grid13"
       units="mm"
       originx="-39.467884"
       originy="-36.33129"
       spacingx="1"
       spacingy="0.99999998"
       empcolor="#0099e5"
       empopacity="0.30196078"
       color="#0099e5"
       opacity="0.14901961"
       empspacing="5"
       dotted="true"
       gridanglex="30"
       gridanglez="30"
       visible="true" /></sodipodi:namedview><defs
     id="defs1"><rect
   id="SVGID_1_"
   x="124.12"
   y="110.1"
   width="934.47998"
   height="611.52002" /><clipPath
   clipPathUnits="userSpaceOnUse"
   id="clipPath3"><g
     id="g4"><use
       xlink:href="#SVGID_1_"
       style="overflow:visible"
       id="use3"
       transform="matrix(0.26458333,0,0,0.26458333,169.33074,27.980078)" /></g></clipPath><clipPath
   clipPathUnits="userSpaceOnUse"
   id="clipPath5"><g
     id="g6"><use
       xlink:href="#SVGID_1_"
       style="overflow:visible"
       id="use5"
       transform="matrix(0.26458333,0,0,0.26458333,169.33074,27.980078)" /></g></clipPath>
	
	
	
	
	
	
	
	
	
	
	
	
	
</defs><g
     inkscape:label="Layer 1"
     inkscape:groupmode="layer"
     id="layer1"
     transform="translate(-39.467882,-36.331289)"><g
   id="g1"
   transform="matrix(0.06255011,0,0,0.06255011,39.467882,64.379215)"><path
     d="m 376,0 c 0,1.08 0,2.16 0,3.3 0,38.76 -31.42,70.17 -70.17,70.17 -38.76,0 -70.17,-31.42 -70.17,-70.17 v 0 c 0,-1.14 0,-2.22 0,-3.3 L 0,0 V 612 H 612 V 0 Z"
     fill="#654ff0"
     id="path1" /><path
     d="m 142.16,329.81 h 40.56 l 27.69,147.47 h 0.5 l 33.28,-147.47 h 37.94 l 30.06,149.28 h 0.59 l 31.56,-149.28 h 39.78 L 332.43,546.5 H 292.18 L 262.37,399.03 h -0.78 L 229.68,546.5 h -41 z m 287.69,0 h 63.94 l 63.5,216.69 H 515.45 L 501.64,498.28 H 428.8 l -10.66,48.22 h -40.75 z m 24.34,53.41 -17.69,79.5 h 55.06 l -20.31,-79.5 z"
     fill="#ffffff"
     id="path2" /></g>
		
	<g
   id="g13"
   inkscape:label="g13"><g
     id="text8"
     style="font-weight:bold;font-stretch:condensed;font-size:8.46667px;line-height:1;font-family:'Helvetica Neue';-inkscape-font-specification:'Helvetica Neue Bold Condensed';fill:#654ff0;stroke-width:0.264583"
     aria-label="ENTERPRISE&#10;EDITION"><path
       style="font-stretch:normal;-inkscape-font-specification:'Helvetica Neue Bold'"
       d="m 82.812838,85.325014 v 6.045202 h 4.588935 v -1.1176 h -3.259668 v -1.481667 h 2.929468 v -1.032934 h -2.929468 v -1.295401 h 3.191935 v -1.1176 z m 5.486408,0 v 6.045202 h 1.244601 v -4.047068 h 0.01693 l 2.514601,4.047068 h 1.329267 v -6.045202 h -1.2446 v 4.055535 h -0.01693 l -2.523067,-4.055535 z m 7.61153,1.1176 v 4.927602 h 1.329267 v -4.927602 h 1.811868 v -1.1176 h -4.953002 v 1.1176 z m 3.835402,-1.1176 v 6.045202 h 4.588932 v -1.1176 h -3.25966 v -1.481667 h 2.92946 v -1.032934 h -2.92946 v -1.295401 h 3.19193 v -1.1176 z m 6.815672,2.734734 v -1.7018 h 1.45627 q 0.4572,0 0.6858,0.2032 0.2286,0.194733 0.2286,0.635 0,0.4572 -0.2286,0.6604 -0.2286,0.2032 -0.6858,0.2032 z m -1.32926,-2.734734 v 6.045202 h 1.32926 v -2.362201 h 1.32927 q 0.49953,0 0.71967,0.220134 0.22013,0.220133 0.28786,0.694267 0.0508,0.364067 0.0762,0.762 0.0254,0.397934 0.13547,0.6858 h 1.32927 q -0.0931,-0.127 -0.14394,-0.3048 -0.0423,-0.186266 -0.0677,-0.389467 -0.0169,-0.2032 -0.0254,-0.397933 -0.008,-0.194733 -0.0169,-0.338667 -0.0169,-0.2286 -0.0677,-0.4572 -0.0423,-0.2286 -0.14393,-0.414867 -0.1016,-0.194733 -0.26247,-0.3302 -0.16086,-0.143933 -0.4064,-0.211667 v -0.01693 q 0.508,-0.2032 0.72814,-0.592667 0.2286,-0.389467 0.2286,-0.922867 0,-0.347134 -0.127,-0.643467 -0.11854,-0.3048 -0.3556,-0.5334 -0.2286,-0.2286 -0.5588,-0.3556 -0.32174,-0.135467 -0.72814,-0.135467 z m 7.4422,2.844801 v -1.811867 h 1.03293 q 0.2286,0 0.44027,0.03387 0.21167,0.03387 0.37253,0.135467 0.16087,0.09313 0.254,0.270934 0.1016,0.1778 0.1016,0.465666 0,0.287867 -0.1016,0.465667 -0.0931,0.1778 -0.254,0.2794 -0.16086,0.09313 -0.37253,0.127 -0.21167,0.03387 -0.44027,0.03387 z m -1.32927,-2.844801 v 6.045202 h 1.32927 v -2.167467 h 1.397 q 0.56727,0 0.9652,-0.160867 0.39793,-0.169333 0.64347,-0.440267 0.254,-0.270933 0.36406,-0.618067 0.11854,-0.3556 0.11854,-0.719667 0,-0.372533 -0.11854,-0.719667 -0.11006,-0.347133 -0.36406,-0.618066 -0.24554,-0.270934 -0.64347,-0.431801 -0.39793,-0.169333 -0.9652,-0.169333 z m 6.97654,2.734734 v -1.7018 h 1.45627 q 0.4572,0 0.6858,0.2032 0.2286,0.194733 0.2286,0.635 0,0.4572 -0.2286,0.6604 -0.2286,0.2032 -0.6858,0.2032 z m -1.32927,-2.734734 v 6.045202 h 1.32927 v -2.362201 h 1.32927 q 0.49953,0 0.71966,0.220134 0.22014,0.220133 0.28787,0.694267 0.0508,0.364067 0.0762,0.762 0.0254,0.397934 0.13547,0.6858 h 1.32926 q -0.0931,-0.127 -0.14393,-0.3048 -0.0423,-0.186266 -0.0677,-0.389467 -0.0169,-0.2032 -0.0254,-0.397933 -0.008,-0.194733 -0.0169,-0.338667 -0.0169,-0.2286 -0.0677,-0.4572 -0.0423,-0.2286 -0.14393,-0.414867 -0.1016,-0.194733 -0.26247,-0.3302 -0.16087,-0.143933 -0.4064,-0.211667 v -0.01693 q 0.508,-0.2032 0.72813,-0.592667 0.2286,-0.389467 0.2286,-0.922867 0,-0.347134 -0.127,-0.643467 -0.11853,-0.3048 -0.3556,-0.5334 -0.2286,-0.2286 -0.5588,-0.3556 -0.32173,-0.135467 -0.72813,-0.135467 z m 6.11294,0 v 6.045202 h 1.32926 v -6.045202 z m 3.4036,4.038602 h -1.28693 q -0.008,0.5588 0.2032,0.9652 0.21166,0.4064 0.56726,0.668867 0.36407,0.262467 0.82974,0.381 0.47413,0.127 0.97366,0.127 0.61807,0 1.08374,-0.143933 0.47413,-0.143934 0.7874,-0.397934 0.32173,-0.262467 0.4826,-0.618067 0.16086,-0.3556 0.16086,-0.770467 0,-0.508 -0.22013,-0.829733 -0.21167,-0.3302 -0.508,-0.524934 -0.29633,-0.194733 -0.60113,-0.2794 -0.29634,-0.09313 -0.46567,-0.127 -0.56727,-0.143933 -0.92287,-0.237067 -0.34713,-0.09313 -0.55033,-0.186267 -0.19473,-0.09313 -0.26247,-0.2032 -0.0677,-0.110066 -0.0677,-0.287866 0,-0.194734 0.0847,-0.321734 0.0847,-0.127 0.21166,-0.211667 0.13547,-0.08467 0.29634,-0.118533 0.16086,-0.03387 0.32173,-0.03387 0.24553,0 0.44873,0.04233 0.21167,0.04233 0.37254,0.143933 0.16086,0.1016 0.254,0.2794 0.1016,0.1778 0.11853,0.448734 h 1.28693 q 0,-0.524934 -0.2032,-0.889001 -0.19473,-0.372533 -0.5334,-0.6096 -0.33866,-0.237067 -0.77893,-0.338667 -0.4318,-0.110066 -0.90593,-0.110066 -0.4064,0 -0.8128,0.110066 -0.4064,0.110067 -0.72814,0.338667 -0.32173,0.2286 -0.52493,0.575734 -0.19473,0.338666 -0.19473,0.804333 0,0.414867 0.1524,0.711201 0.16086,0.287866 0.41486,0.4826 0.254,0.194733 0.57574,0.321733 0.32173,0.118534 0.6604,0.2032 0.3302,0.09313 0.65193,0.169334 0.32173,0.0762 0.57573,0.1778 0.254,0.1016 0.4064,0.254 0.16087,0.1524 0.16087,0.397933 0,0.2286 -0.11853,0.381001 -0.11854,0.143933 -0.29634,0.2286 -0.1778,0.08467 -0.381,0.118533 -0.2032,0.0254 -0.381,0.0254 -0.26246,0 -0.508,-0.05927 -0.24553,-0.06773 -0.4318,-0.194733 -0.1778,-0.135467 -0.28786,-0.347134 -0.11007,-0.211666 -0.11007,-0.516466 z m 4.58894,-4.038602 v 6.045202 h 4.58893 v -1.1176 h -3.25967 v -1.481667 h 2.92947 v -1.032934 h -2.92947 v -1.295401 h 3.19194 v -1.1176 z"
       id="path16" /><path
       style="font-stretch:normal;-inkscape-font-specification:'Helvetica Neue Bold'"
       d="m 82.812838,93.833376 v 6.045202 h 4.588935 v -1.1176 h -3.259668 v -1.481667 h 2.929468 v -1.032934 h -2.929468 v -1.295401 h 3.191935 v -1.1176 z m 6.815675,4.927602 v -3.810002 h 0.948267 q 0.491067,0 0.821267,0.143934 0.338667,0.135467 0.541867,0.397933 0.2032,0.262467 0.287867,0.635001 0.09313,0.364066 0.09313,0.821267 0,0.499533 -0.127,0.846667 -0.127,0.347133 -0.338666,0.567267 -0.211667,0.211666 -0.482601,0.3048 -0.270933,0.09313 -0.5588,0.09313 z m -1.329267,-4.927602 v 6.045202 h 2.607735 q 0.694266,0 1.202267,-0.2286 0.516467,-0.237066 0.855133,-0.643467 0.347134,-0.4064 0.516467,-0.9652 0.169334,-0.5588 0.169334,-1.2192 0,-0.753534 -0.211667,-1.312334 -0.2032,-0.558801 -0.575734,-0.931334 -0.364067,-0.372533 -0.872067,-0.5588 -0.499533,-0.186267 -1.083733,-0.186267 z m 6.273796,0 v 6.045202 h 1.329267 v -6.045202 z m 3.835402,1.1176 v 4.927602 h 1.329268 v -4.927602 h 1.811868 v -1.1176 h -4.953003 v 1.1176 z m 3.835406,-1.1176 v 6.045202 h 1.32926 v -6.045202 z m 3.56446,3.048001 q 0,-0.397933 0.0847,-0.770467 0.0931,-0.372533 0.28787,-0.6604 0.19473,-0.296333 0.508,-0.465667 0.31327,-0.1778 0.762,-0.1778 0.44873,0 0.762,0.1778 0.31327,0.169334 0.508,0.465667 0.19473,0.287867 0.2794,0.6604 0.0931,0.372534 0.0931,0.770467 0,0.381 -0.0931,0.745067 -0.0847,0.3556 -0.2794,0.643467 -0.19473,0.287867 -0.508,0.465667 -0.31327,0.169333 -0.762,0.169333 -0.44873,0 -0.762,-0.169333 -0.31327,-0.1778 -0.508,-0.465667 -0.19473,-0.287867 -0.28787,-0.643467 -0.0847,-0.364067 -0.0847,-0.745067 z m -1.32926,0 q 0,0.660401 0.2032,1.236134 0.2032,0.567267 0.5842,0.9906 0.381,0.423334 0.93133,0.668867 0.5588,0.237072 1.25307,0.237072 0.70273,0 1.25307,-0.237072 0.55033,-0.245533 0.93133,-0.668867 0.381,-0.423333 0.5842,-0.9906 0.2032,-0.575733 0.2032,-1.236134 0,-0.677333 -0.2032,-1.253067 -0.2032,-0.5842 -0.5842,-1.016 -0.381,-0.4318 -0.93133,-0.677334 -0.55034,-0.245533 -1.25307,-0.245533 -0.69427,0 -1.25307,0.245533 -0.55033,0.245534 -0.93133,0.677334 -0.381,0.4318 -0.5842,1.016 -0.2032,0.575734 -0.2032,1.253067 z m 6.84953,-3.048001 v 6.045202 h 1.2446 V 95.83151 h 0.0169 l 2.5146,4.047068 h 1.32927 v -6.045202 h -1.24461 v 4.055535 h -0.0169 l -2.52307,-4.055535 z"
       id="path17" /></g><path
     style="font-weight:bold;font-size:17.6389px;line-height:1;font-family:'Helvetica Neue';-inkscape-font-specification:'Helvetica Neue Bold';fill:#654ff0;stroke-width:0.264583"
     d="m 95.971455,80.789452 3.386669,-12.594176 h -2.716391 l -2.063751,8.67834 h -0.03528 l -2.151946,-8.67834 H 89.79784 l -2.187224,8.572506 h -0.03528 L 85.58214,68.195276 h -2.769307 l 3.333752,12.594176 h 2.804585 l 2.09903,-8.572506 h 0.03528 l 2.134307,8.572506 z m 3.633607,-6.314727 q 0.05292,-0.881945 0.440968,-1.464029 0.38806,-0.582083 0.98778,-0.934861 0.59973,-0.352778 1.34056,-0.49389 0.75847,-0.15875 1.51695,-0.15875 0.68791,0 1.39347,0.105834 0.70555,0.08819 1.28764,0.370417 0.58208,0.282222 0.9525,0.79375 0.37042,0.493889 0.37042,1.322918 v 4.744864 q 0,0.617362 0.0706,1.181806 0.0706,0.564445 0.24695,0.846668 h -2.54001 q -0.0705,-0.211667 -0.12347,-0.423334 -0.0353,-0.229306 -0.0529,-0.458611 -0.59973,0.617361 -1.41112,0.864306 -0.81139,0.246944 -1.65805,0.246944 -0.65264,0 -1.21709,-0.15875 -0.56444,-0.15875 -0.98778,-0.493889 -0.42333,-0.335139 -0.670274,-0.846667 -0.229306,-0.511528 -0.229306,-1.217084 0,-0.776112 0.264584,-1.270001 0.282222,-0.511528 0.705556,-0.81139 0.44097,-0.299861 0.98778,-0.440972 0.56444,-0.15875 1.12889,-0.246945 0.56444,-0.08819 1.11125,-0.141111 0.5468,-0.05292 0.97014,-0.15875 0.42333,-0.105834 0.67028,-0.299861 0.24694,-0.211667 0.2293,-0.599723 0,-0.405695 -0.14111,-0.635001 -0.12347,-0.246944 -0.35278,-0.370416 -0.21166,-0.141112 -0.51153,-0.176389 -0.28222,-0.05292 -0.61736,-0.05292 -0.74083,0 -1.16416,0.3175 -0.42334,0.3175 -0.49389,1.058334 z m 5.785558,1.852085 q -0.15875,0.141111 -0.40569,0.229305 -0.22931,0.07056 -0.51153,0.123473 -0.26458,0.05292 -0.56445,0.08819 -0.29986,0.03528 -0.59972,0.08819 -0.28222,0.05292 -0.56444,0.141111 -0.26459,0.08819 -0.47625,0.246945 -0.19403,0.141111 -0.3175,0.370416 -0.12348,0.229306 -0.12348,0.582084 0,0.335139 0.12348,0.564445 0.12347,0.229306 0.33514,0.370417 0.21166,0.123472 0.49388,0.176389 0.28223,0.05292 0.58209,0.05292 0.74083,0 1.14653,-0.246945 0.40569,-0.246945 0.59972,-0.582084 0.19403,-0.352778 0.22931,-0.705556 0.0529,-0.352778 0.0529,-0.564445 z m 6.38527,1.499306 h -2.38125 q 0.0353,0.917223 0.4057,1.534585 0.38805,0.599722 0.97014,0.970139 0.59972,0.370417 1.35819,0.529167 0.75847,0.15875 1.55222,0.15875 0.77612,0 1.51695,-0.15875 0.75847,-0.141111 1.34056,-0.511528 0.58208,-0.370417 0.93486,-0.970139 0.37042,-0.617362 0.37042,-1.516946 0,-0.635 -0.24695,-1.058334 -0.24694,-0.440972 -0.65264,-0.723195 -0.40569,-0.299861 -0.93486,-0.47625 -0.51153,-0.176389 -1.05833,-0.299862 -0.52917,-0.123472 -1.0407,-0.229305 -0.51153,-0.105834 -0.91722,-0.229306 -0.38806,-0.141111 -0.635,-0.352778 -0.24695,-0.211667 -0.24695,-0.546806 0,-0.282222 0.14111,-0.440972 0.14112,-0.176389 0.33514,-0.264584 0.21167,-0.08819 0.45861,-0.105833 0.24695,-0.03528 0.45862,-0.03528 0.67027,0 1.16416,0.264583 0.49389,0.246945 0.54681,0.97014 h 2.38125 q -0.0705,-0.846667 -0.44097,-1.393473 -0.35278,-0.564445 -0.89959,-0.899584 -0.5468,-0.335139 -1.25236,-0.47625 -0.68791,-0.141112 -1.42875,-0.141112 -0.74083,0 -1.44639,0.141112 -0.70555,0.123472 -1.27,0.458611 -0.56444,0.3175 -0.91722,0.881945 -0.33514,0.564445 -0.33514,1.44639 0,0.599722 0.24694,1.023056 0.24695,0.405695 0.65264,0.687917 0.4057,0.264584 0.91723,0.440973 0.52916,0.15875 1.07597,0.282222 1.34055,0.282223 2.08139,0.564445 0.75847,0.282222 0.75847,0.846667 0,0.335139 -0.15875,0.564445 -0.15875,0.211667 -0.40569,0.352778 -0.22931,0.123472 -0.52917,0.194028 -0.28222,0.05292 -0.54681,0.05292 -0.37041,0 -0.72319,-0.08819 -0.33514,-0.08819 -0.59972,-0.264583 -0.26459,-0.194028 -0.44098,-0.476251 -0.15875,-0.299861 -0.15875,-0.705556 z m 7.60238,-6.155976 v 9.119312 h 2.50472 v -5.291671 q 0,-0.670278 0.19403,-1.075973 0.19403,-0.423333 0.45861,-0.635 0.28223,-0.229306 0.56445,-0.299861 0.29986,-0.08819 0.47625,-0.08819 0.59972,0 0.89958,0.211667 0.3175,0.194028 0.44097,0.529167 0.14112,0.335139 0.15875,0.740834 0.0176,0.388056 0.0176,0.79375 v 5.115282 h 2.50473 v -5.080004 q 0,-0.423333 0.0529,-0.829028 0.0706,-0.423334 0.24695,-0.740834 0.19403,-0.335139 0.51153,-0.529167 0.33514,-0.211667 0.8643,-0.211667 0.52917,0 0.82903,0.176389 0.3175,0.176389 0.47625,0.476251 0.15875,0.299861 0.19403,0.705556 0.0353,0.405694 0.0353,0.864306 v 5.168198 h 2.50472 v -6.10306 q 0,-0.881945 -0.24694,-1.499307 -0.24695,-0.635 -0.68792,-1.023056 -0.44097,-0.388056 -1.05833,-0.564445 -0.61737,-0.176389 -1.34056,-0.176389 -0.9525,0 -1.65806,0.458612 -0.68792,0.458611 -1.09361,1.058334 -0.37042,-0.846667 -1.09361,-1.181807 -0.70556,-0.335139 -1.56986,-0.335139 -0.89959,0 -1.60514,0.388056 -0.68792,0.388056 -1.18181,1.093612 h -0.0353 V 71.67014 Z"
     id="text13"
     aria-label="Wasm" /></g><g
   id="g16"
   style="display:none"
   inkscape:label="text"><text
     xml:space="preserve"
     style="font-style:normal;font-variant:normal;font-weight:bold;font-stretch:condensed;font-size:8.46667px;line-height:1;font-family:'Helvetica Neue';-inkscape-font-specification:'Helvetica Neue Bold Condensed';fill:#654ff0;fill-opacity:1;stroke-width:0.264583"
     x="82.228638"
     y="91.370216"
     id="text15"><tspan
       style="font-style:normal;font-variant:normal;font-weight:bold;font-stretch:normal;font-size:8.46667px;line-height:1;font-family:'Helvetica Neue';-inkscape-font-specification:'Helvetica Neue Bold';fill:#654ff0;fill-opacity:1;stroke-width:0.264583"
       sodipodi:role="line"
       id="tspan14"
       x="82.228638"
       y="91.370216">ENTERPRISE</tspan><tspan
       sodipodi:role="line"
       style="font-style:normal;font-variant:normal;font-weight:bold;font-stretch:normal;font-size:8.46667px;line-height:1;font-family:'Helvetica Neue';-inkscape-font-specification:'Helvetica Neue Bold';fill:#654ff0;fill-opacity:1;stroke-width:0.264583"
       x="82.228638"
       y="99.878578"
       id="tspan15">EDITION</tspan></text><text
     xml:space="preserve"
     style="font-style:normal;font-variant:normal;font-weight:bold;font-stretch:condensed;font-size:17.6389px;line-height:1;font-family:'Helvetica Neue';-inkscape-font-specification:'Helvetica Neue Bold Condensed';fill:#654ff0;fill-opacity:1;stroke-width:0.264583"
     x="82.759918"
     y="80.789452"
     id="text16"><tspan
       sodipodi:role="line"
       id="tspan16"
       style="font-style:normal;font-variant:normal;font-weight:bold;font-stretch:normal;font-size:17.6389px;font-family:'Helvetica Neue';-inkscape-font-specification:'Helvetica Neue Bold';stroke-width:0.264583"
       x="82.759918"
       y="80.789452">Wasm</tspan></text></g><g
   id="g20"
   transform="matrix(0.41201439,0,0,0.41201439,22.057313,39.385825)"
   inkscape:label="g20"><path
     fill-rule="evenodd"
     clip-rule="evenodd"
     fill="#ea2d2e"
     d="m 92.213459,49.7747 c 5.77268,6.64501 -1.51368,12.619831 -1.51368,12.619831 0,0 14.649181,-7.560998 7.92295,-17.033875 -6.28439,-8.82994 -11.10245,-13.216202 14.981501,-28.343225 2.6e-4,0 -40.945331,10.223765 -21.390771,32.757269 z"
     id="path3"
     style="fill:#f49734;fill-opacity:1;stroke-width:0.264583" /><path
     fill-rule="evenodd"
     clip-rule="evenodd"
     fill="#ea2d2e"
     d="m 98.622989,-7.413664 c 0,0 12.425631,12.4327702 -11.78904,31.545476 -19.41856,15.337632 -4.42754,24.079465 -0.007,34.072513 -11.33607,-10.22694 -19.65087,-19.230975 -14.07371,-27.6098 8.18991,-12.297569 30.881901,-18.261806 25.86963,-38.008189 z"
     id="path7"
     style="fill:#f49734;fill-opacity:1;stroke-width:0.264583"
     inkscape:label="path7" /></g></g><style
     type="text/css"
     id="style1">
	.st0{clip-path:url(#SVGID_00000141429680582106682160000018105045912794111919_);}
	.st1{fill:#5582A1;}
	.st2{fill:#F49734;}
</style></svg>
